<svg width="133" height="28" viewBox="0 0 133 28" fill="none" xmlns="http://www.w3.org/2000/svg">
<path d="M127.707 11.5708C115.444 4.27577 75.0203 3.66785 56.3414 4.27577V9.56466C61.1075 9.3095 62.6434 10.4765 63.3114 15.7654C62.9841 22.5133 62.9841 21.2367 62.6434 22.8781C112.106 17.6256 126.629 13.1514 127.707 11.5708Z" fill="white"/>
<path d="M56.5123 2.39024L42.683 2.39024C43.9123 7.03415 43.6505 10.5854 43.3659 11.7805L56.5123 11.439C57.7415 8.57073 57.0245 4.21138 56.5123 2.39024Z" fill="white"/>
<path d="M43.2849 1.13222L0.916651 0C-0.743493 6.4914 0.224925 12.2657 0.916651 14.3415L43.2849 13.2092C44.6684 7.62362 43.8614 2.83055 43.2849 1.13222Z" fill="white"/>
<path d="M62.1464 28L62.4806 22.2485C62.8723 22.2144 63.2622 22.1802 63.6503 22.1457C101.403 18.7932 121.914 13.511 127.482 11.2683C131.626 14.0569 132.774 15.2188 132.829 15.4512C128.953 23.3988 84.0921 27.1286 62.1464 28Z" fill="white"/>
</svg>
